<svg xmlns="http://www.w3.org/2000/svg" viewBox="0 0 900 620" role="img">
  <defs>
    <linearGradient id="bg" x1="0" y1="0" x2="1" y2="1"><stop stop-color="#f5f3ff"/><stop offset="1" stop-color="#ffffff"/></linearGradient>
    <linearGradient id="p" x1="0" y1="0" x2="1" y2="1"><stop stop-color="#7c3aed"/><stop offset="1" stop-color="#c084fc"/></linearGradient>
  </defs>
  <rect width="900" height="620" fill="url(#bg)"/>
  <circle cx="760" cy="110" r="150" fill="#ede9fe"/>
  <circle cx="120" cy="500" r="180" fill="#f8fafc"/>
  <path d="M170 410h560v80H170z" rx="26" fill="#1f2937"/>
  <path d="M210 260h480v180H210z" rx="34" fill="#fff" stroke="#ddd6fe" stroke-width="8"/>
  <path d="M260 300h120v90H260z" rx="20" fill="#fef3c7"/>
  <path d="M410 300h120v90H410z" rx="20" fill="#e0f2fe"/>
  <path d="M560 300h80v90H560z" rx="20" fill="#dcfce7"/>
  <path d="M310 210c0 70 280 70 280 0" fill="none" stroke="url(#p)" stroke-width="16" stroke-linecap="round"/>
  <circle cx="300" cy="205" r="17" fill="#7c3aed"/><circle cx="450" cy="230" r="17" fill="#a78bfa"/><circle cx="600" cy="205" r="17" fill="#7c3aed"/>
  <text x="450" y="540" text-anchor="middle" font-family="Segoe UI, Arial" font-size="34" font-weight="800" fill="#08060d">Mesa dulce y decoración temática</text>
</svg>
